<?xml version="1.0" encoding="iso-8859-1"?>
<!-- Generator: Adobe Illustrator 19.0.0, SVG Export Plug-In . SVG Version: 6.00 Build 0)  -->
<svg version="1.1" id="Layer_1" xmlns="http://www.w3.org/2000/svg" xmlns:xlink="http://www.w3.org/1999/xlink" x="0px" y="0px"
	 viewBox="0 0 512 512" style="enable-background:new 0 0 512 512;" xml:space="preserve">
<path style="fill:#D35B38;" d="M118.094,453.545L15.968,276.658c-7.38-12.783-7.38-28.533,0-41.316L118.094,58.455
	c7.38-12.783,21.02-20.657,35.78-20.657h204.252c14.761,0,28.4,7.874,35.78,20.657l102.126,176.887
	c7.38,12.783,7.38,28.533,0,41.316L393.906,453.545c-7.38,12.783-21.019,20.657-35.78,20.657H153.874
	C139.114,474.202,125.475,466.328,118.094,453.545z"/>
<g>
	<path style="fill:#4D3D36;" d="M358.126,484.657H153.874c-18.436,0-35.616-9.918-44.834-25.885l0,0L6.914,281.885
		c-9.219-15.966-9.219-35.804,0-51.771L109.04,53.228c9.218-15.966,26.398-25.885,44.834-25.885h204.252
		c18.436,0,35.616,9.918,44.834,25.885l102.126,176.887c9.219,15.966,9.219,35.804,0,51.771L402.96,458.772
		C393.742,474.738,376.563,484.657,358.126,484.657z M127.148,448.317c5.495,9.518,15.736,15.43,26.726,15.43h204.252
		c10.99,0,21.231-5.912,26.726-15.43l102.126-176.887c5.495-9.518,5.495-21.343,0-30.861L384.852,63.683
		c-5.495-9.518-15.736-15.43-26.726-15.43H153.874c-10.99,0-21.231,5.912-26.726,15.43L25.023,240.569
		c-5.495,9.518-5.495,21.343,0,30.861L127.148,448.317z"/>
	<path style="fill:#4D3D36;" d="M284.228,444.116H154.349c-4.292,0-8.291-2.308-10.437-6.025L42.261,262.027
		c-2.145-3.719-2.145-8.334-0.002-12.049L143.911,73.91c2.146-3.718,6.145-6.026,10.437-6.026H357.65
		c4.292,0,8.291,2.308,10.437,6.025l101.651,176.066c2.145,3.719,2.145,8.334,0.002,12.049L368.088,438.091
		c-2.888,5-9.284,6.712-14.281,3.826c-5-2.887-6.714-9.281-3.826-14.281l99.094-171.636L352.538,88.792H159.463L62.926,255.999
		l96.537,167.208h124.765c5.774,0,10.455,4.681,10.455,10.455C294.682,439.436,290.002,444.116,284.228,444.116z"/>
	<path style="fill:#4D3D36;" d="M323.957,444.116h-4.182c-5.774,0-10.455-4.681-10.455-10.455c0-5.774,4.681-10.455,10.455-10.455
		h4.182c5.774,0,10.455,4.681,10.455,10.455C334.411,439.436,329.731,444.116,323.957,444.116z"/>
</g>
<g>
	<path style="fill:#F2F2F2;" d="M168.106,275.752c0-14.269-37.381-11.792-37.381-39.386c0-17.688,15.448-24.41,30.188-24.41
		c6.25,0,23.467,1.179,23.467,10.377c0,3.183-2.122,9.67-7.311,9.67c-4.246,0-6.486-4.481-16.156-4.481
		c-8.372,0-11.792,3.42-11.792,7.076c0,11.792,37.381,9.551,37.381,39.268c0,16.981-12.382,26.179-29.48,26.179
		c-15.448,0-28.419-7.547-28.419-15.33c0-4.009,3.538-9.906,8.019-9.906c5.542,0,9.08,8.727,20.047,8.727
		C162.093,283.534,168.106,281.412,168.106,275.752z"/>
	<path style="fill:#F2F2F2;" d="M246.644,212.664c3.891,0,5.542,4.246,5.542,8.137c0,4.481-2.004,8.372-5.542,8.372h-16.273v64.032
		c0,3.773-4.599,5.66-9.198,5.66s-9.198-1.887-9.198-5.66v-64.032h-16.273c-3.538,0-5.542-3.891-5.542-8.372
		c0-3.891,1.651-8.137,5.542-8.137L246.644,212.664L246.644,212.664z"/>
	<path style="fill:#F2F2F2;" d="M257.261,271.742v-31.249c0-20.282,12.618-27.829,28.891-27.829s29.009,7.547,29.009,27.829v31.249
		c0,20.282-12.736,27.829-29.009,27.829S257.261,292.024,257.261,271.742z M296.765,240.493c0-8.137-4.009-11.792-10.613-11.792
		s-10.495,3.656-10.495,11.792v31.249c0,8.137,3.891,11.792,10.495,11.792c6.604,0,10.613-3.656,10.613-11.792V240.493z"/>
	<path style="fill:#F2F2F2;" d="M326.956,218.206c0-2.948,2.712-5.542,6.839-5.542h24.41c15.566,0,27.829,7.311,27.829,27.122v0.59
		c0,19.811-12.736,27.358-29.009,27.358h-11.675v25.471c0,3.773-4.599,5.66-9.198,5.66c-4.599,0-9.198-1.887-9.198-5.66v-74.998
		H326.956z M345.352,228.701v24.881h11.675c6.603,0,10.613-3.773,10.613-11.792v-1.297c0-8.019-4.009-11.792-10.613-11.792
		L345.352,228.701L345.352,228.701z"/>
</g>
<g>
</g>
<g>
</g>
<g>
</g>
<g>
</g>
<g>
</g>
<g>
</g>
<g>
</g>
<g>
</g>
<g>
</g>
<g>
</g>
<g>
</g>
<g>
</g>
<g>
</g>
<g>
</g>
<g>
</g>
</svg>
